<svg width="120" height="120" viewBox="0 0 120 120" fill="none" xmlns="http://www.w3.org/2000/svg">
<path d="M82.2386 40.8357C82.2386 40.8357 65.6512 21.9664 60.187 0C54.7167 21.9664 38.1354 40.8357 38.1354 40.8357C23.629 58.1228 25.5214 75.5012 25.5214 75.5012C25.5214 94.6443 41.0379 110.167 60.187 110.167C79.3301 110.167 94.8526 94.6443 94.8526 75.5012C94.8526 75.5012 96.745 58.1289 82.2386 40.8357Z" fill="#0075B4"/>
<path opacity="0.8" d="M42.7599 34.9637C40.0339 38.6694 38.1354 40.8357 38.1354 40.8357C23.629 58.1228 25.5214 75.5012 25.5214 75.5012C25.5214 76.1888 25.5458 76.8703 25.5884 77.5458C35.5737 98.6786 63.6797 103.443 63.6797 103.443C15.0128 75.0327 40.6424 37.8784 42.7599 34.9637Z" fill="#0075B4"/>
<path opacity="0.5" d="M92.6864 87.5797C42.0054 101.569 34.6488 55.1534 34.6366 55.0804C32.4825 68.9296 36.456 87.5493 63.6797 103.443C68.4929 104.879 73.1296 105.481 77.4255 105.573C84.3988 101.563 89.8447 95.2102 92.6864 87.5797Z" fill="#0075B4"/>
<path d="M44.5915 32.4081C44.056 33.1748 43.5449 33.8928 43.052 34.5682C44.628 52.8837 58.7449 81.7991 92.9298 86.8861C94.1711 83.3203 94.8526 79.4929 94.8526 75.5073C94.8526 75.5073 95.1325 72.8787 94.6335 68.6557C60.0836 70.4508 48.1815 44.2067 44.5915 32.4081Z" fill="white"/>
<path opacity="0.4" d="M84.1371 49.9082C87.6724 55.9809 88.1531 62.2849 85.2202 63.9947C82.2873 65.7046 77.0421 62.1693 73.5129 56.0965C69.9776 50.0238 69.4969 43.7199 72.4298 42.01C75.3627 40.3002 80.6018 43.8355 84.1371 49.9082Z" fill="white"/>
<path opacity="0.4" d="M70.507 37.1665C70.507 38.4869 69.436 39.5578 68.1156 39.5578C66.7952 39.5578 65.7243 38.4869 65.7243 37.1665C65.7243 35.846 66.7952 34.7751 68.1156 34.7751C69.436 34.7751 70.507 35.846 70.507 37.1665Z" fill="white"/>
<path opacity="0.5" d="M85.1046 101.362C96.8363 102.798 104.54 105.214 104.54 107.952C104.54 112.351 84.6848 115.917 60.187 115.917C35.6893 115.917 15.8343 112.351 15.8343 107.952C15.8343 105.214 23.5378 102.798 35.2694 101.362C16.8566 102.974 4.2 106.309 4.2 110.167C4.2 115.601 29.2636 120 60.187 120C91.1104 120 116.174 115.595 116.174 110.167C116.174 106.309 103.517 102.968 85.1046 101.362Z" fill="#0075B4"/>
<path d="M77.4255 105.573C73.1296 105.488 68.4929 104.879 63.6797 103.443C63.6797 103.443 35.5737 98.6786 25.5884 77.5458C25.6066 77.6675 28.8681 102.688 66.5761 109.564C70.4583 108.846 74.1153 107.471 77.4255 105.573Z" fill="white"/>
</svg>
