<svg width="160" height="160" viewBox="0 0 160 160" fill="none" xmlns="http://www.w3.org/2000/svg">
<path d="M101.578 40.0355C101.578 40.0355 85.3161 21.536 79.9589 0C74.5958 21.536 58.3394 40.0355 58.3394 40.0355C44.1172 56.9839 45.9726 74.0218 45.9726 74.0218C45.9726 92.7898 61.185 108.008 79.9589 108.008C98.7268 108.008 113.945 92.7898 113.945 74.0218C113.945 74.0218 115.801 56.9899 101.578 40.0355Z" fill="#0075B4"/>
<path opacity="0.8" d="M62.8733 34.2787C60.2007 37.9117 58.3394 40.0355 58.3394 40.0355C44.1172 56.9839 45.9726 74.0218 45.9726 74.0218C45.9726 74.696 45.9964 75.3641 46.0382 76.0263C55.8278 96.745 83.3832 101.416 83.3832 101.416C35.6699 73.5625 60.7972 37.1362 62.8733 34.2787Z" fill="#0075B4"/>
<path opacity="0.5" d="M111.822 85.8637C62.1336 99.5787 54.9211 54.0727 54.9092 54.0011C52.7973 67.5789 56.6929 85.8338 83.3832 101.416C88.1021 102.824 92.6479 103.415 96.8597 103.504C103.696 99.5727 109.036 93.3446 111.822 85.8637Z" fill="#0075B4"/>
<path d="M64.6689 31.7731C64.1439 32.5247 63.6428 33.2287 63.1596 33.8909C64.7047 51.8475 78.545 80.1963 112.06 85.1836C113.277 81.6877 113.945 77.9353 113.945 74.0278C113.945 74.0278 114.22 71.4506 113.73 67.3105C79.8575 69.0704 68.1887 43.3405 64.6689 31.7731Z" fill="white"/>
<path opacity="0.4" d="M103.44 48.9303C106.906 54.884 107.377 61.0644 104.502 62.7408C101.626 64.4171 96.4838 60.9511 93.0237 54.9974C89.5576 49.0436 89.0864 42.8632 91.9618 41.1869C94.8373 39.5105 99.9737 42.9766 103.44 48.9303Z" fill="white"/>
<path opacity="0.4" d="M90.0766 36.4382C90.0766 37.7328 89.0267 38.7827 87.7321 38.7827C86.4376 38.7827 85.3876 37.7328 85.3876 36.4382C85.3876 35.1437 86.4376 34.0937 87.7321 34.0937C89.0267 34.0937 90.0766 35.1437 90.0766 36.4382Z" fill="white"/>
<path opacity="0.5" d="M104.388 99.3759C115.89 100.784 123.443 103.152 123.443 105.837C123.443 110.15 103.977 113.646 79.9589 113.646C55.9412 113.646 36.4752 110.15 36.4752 105.837C36.4752 103.152 44.0278 100.784 55.5295 99.3759C37.4775 100.957 25.0689 104.226 25.0689 108.008C25.0689 113.336 49.6414 117.649 79.9589 117.649C110.276 117.649 134.849 113.33 134.849 108.008C134.849 104.226 122.44 100.951 104.388 99.3759Z" fill="#0075B4"/>
<path d="M96.8596 103.504C92.6478 103.421 88.102 102.824 83.3831 101.416C83.3831 101.416 55.8278 96.745 46.0381 76.0263C46.056 76.1456 49.2536 100.676 86.2228 107.418C90.0289 106.714 93.6142 105.365 96.8596 103.504Z" fill="white"/>
<path d="M18.4541 153.279H15.6392V142.189C15.5956 142.211 15.3556 142.298 14.9301 142.456C14.4991 142.609 14.03 142.778 13.5226 142.952L11.5369 143.613C11.2696 143.678 11.0187 143.787 10.7732 143.945C10.5768 144.076 10.3913 144.251 10.2277 144.458C10.064 144.671 9.97672 144.938 9.97672 145.271V145.304V153.285H7.20001V133.024C7.20001 132.778 7.24365 132.435 7.33094 131.982C7.41822 131.529 7.6528 131.082 8.02375 130.64C8.40016 130.198 8.96205 129.816 9.71487 129.5C10.4677 129.178 11.5042 129.02 12.8243 129.02C14.1445 129.02 15.1865 129.178 15.9338 129.5C16.6866 129.822 17.2485 130.204 17.6249 130.64C18.0014 131.082 18.2305 131.529 18.3178 131.982C18.405 132.435 18.4487 132.784 18.4487 133.024V153.279H18.4541ZM9.98218 141.36C10.1786 141.294 10.5113 141.179 10.975 141.01C11.4387 140.847 11.9079 140.678 12.3825 140.514C12.8571 140.35 13.288 140.198 13.6754 140.067C14.0627 139.936 14.2754 139.859 14.3191 139.837C14.8919 139.641 15.2574 139.363 15.4101 139.008C15.5629 138.654 15.6392 138.337 15.6392 138.048V133.509C15.6392 133.313 15.6065 133.095 15.5411 132.866C15.4756 132.637 15.3392 132.418 15.1265 132.222C14.9137 132.026 14.6246 131.851 14.2482 131.709C13.8718 131.567 13.3644 131.491 12.7262 131.491C12.1315 131.491 11.6515 131.562 11.286 131.709C10.9205 131.851 10.6423 132.037 10.4404 132.255C10.244 132.473 10.1131 132.702 10.0586 132.931C10.004 133.16 9.97672 133.379 9.97672 133.575V141.36H9.98218Z" fill="#0075B4"/>
<path d="M32.9595 160H30.1446V155.761V155.167C30.1446 154.899 30.0955 154.67 29.9973 154.474C29.8991 154.277 29.7845 154.097 29.6482 153.945C29.5172 153.792 29.3809 153.672 29.2499 153.596C29.119 153.519 29.0045 153.459 28.9172 153.416C28.8299 153.394 28.6062 153.317 28.2571 153.186C27.9025 153.055 27.4879 152.903 27.0133 152.739C26.5387 152.575 26.0477 152.401 25.5404 152.226C25.033 152.052 24.5803 151.894 24.182 151.763C23.3637 151.473 22.7419 150.988 22.3109 150.306C21.8799 149.624 21.6672 148.86 21.6672 148.02V147.257H21.6999V140.536H21.6672V139.739C21.6672 139.188 21.7708 138.67 21.9836 138.185C22.1909 137.699 22.5291 137.274 22.9928 136.908C23.4565 136.543 24.0457 136.259 24.7657 136.046C25.4804 135.839 26.3368 135.73 27.3297 135.73C29.2499 135.73 30.6628 136.112 31.5684 136.87C32.474 137.634 32.9377 138.577 32.9595 139.701V160ZM30.1446 147.257V140.236C30.1446 139.99 30.101 139.756 30.0137 139.527C29.9264 139.297 29.7736 139.079 29.5663 138.883C29.3536 138.686 29.0699 138.523 28.7044 138.403C28.3389 138.283 27.8807 138.223 27.3297 138.223C26.8005 138.223 26.3532 138.277 25.9877 138.386C25.6222 138.496 25.3385 138.654 25.1258 138.85C24.9185 139.046 24.7603 139.281 24.6621 139.543C24.5639 139.81 24.5039 140.083 24.4821 140.372V147.257V147.42C24.4821 147.84 24.5639 148.189 24.733 148.462C24.8967 148.74 25.0821 148.964 25.2785 149.139C25.5186 149.335 25.775 149.493 26.0423 149.602C26.3969 149.733 26.7733 149.87 27.166 150.001C27.4988 150.11 27.8534 150.241 28.2407 150.382C28.628 150.524 28.9881 150.655 29.3154 150.764C29.49 150.808 29.6645 150.884 29.8282 150.993C29.9918 151.103 30.0955 151.283 30.1446 151.523V147.415V147.257V147.257Z" fill="#0075B4"/>
<path d="M47.4595 148.91V149.504C47.4595 149.771 47.4159 150.121 47.3286 150.562C47.2413 151.004 47.0068 151.446 46.6358 151.888C46.2594 152.33 45.6975 152.712 44.9447 153.028C44.1919 153.35 43.1554 153.508 41.8352 153.508C40.5096 153.508 39.4731 153.35 38.7257 153.028C37.9729 152.706 37.411 152.33 37.0346 151.888C36.6582 151.446 36.4291 150.999 36.3418 150.546C36.2545 150.093 36.2109 149.744 36.2109 149.504V149.139V135.964H38.993V148.642H39.0258V148.975C39.0258 149.15 39.053 149.362 39.1076 149.602C39.1622 149.848 39.2822 150.072 39.4731 150.279C39.664 150.486 39.9368 150.666 40.3023 150.808C40.6678 150.95 41.1588 151.021 41.7752 151.021C42.4135 151.021 42.9208 150.95 43.2972 150.808C43.6736 150.666 43.9573 150.492 44.1591 150.295C44.3555 150.099 44.4919 149.881 44.5574 149.651C44.6228 149.422 44.6556 149.204 44.6556 149.008V148.642H44.6883V135.964H47.4705V148.91H47.4595Z" fill="#0075B4"/>
<path d="M56.3298 135.735C58.2718 135.735 59.6956 136.117 60.6012 136.875C61.5068 137.639 61.9596 138.594 61.9596 139.739V141.327V148.577V149.537C61.9596 149.935 61.9541 150.639 61.9432 151.654C61.9323 152.668 61.6541 153.241 61.114 153.377C60.5739 153.508 59.9302 153.568 59.1938 153.557C58.4518 153.546 57.4972 153.541 56.3298 153.541C55.1623 153.541 54.2131 153.41 53.4821 153.143C52.7566 152.881 52.1783 152.548 51.7583 152.15C51.3382 151.752 51.06 151.315 50.9127 150.841C50.7709 150.366 50.6945 149.93 50.6945 149.531V147.977C50.6945 147.137 50.9127 146.378 51.3382 145.691C51.7692 145.009 52.3802 144.524 53.1766 144.234C53.5749 144.103 54.0277 143.945 54.535 143.771C55.0423 143.596 55.5333 143.422 56.0079 143.258C56.4825 143.094 56.8971 142.942 57.2517 142.811C57.6063 142.68 57.8245 142.603 57.9118 142.581C57.9991 142.538 58.1136 142.478 58.2609 142.401C58.4027 142.325 58.5446 142.211 58.6755 142.052C58.8064 141.9 58.9265 141.72 59.0246 141.523C59.1228 141.327 59.1719 141.092 59.1719 140.83V140.203C59.1719 139.985 59.1283 139.756 59.041 139.527C58.9537 139.297 58.7955 139.079 58.5773 138.883C58.3591 138.686 58.0645 138.523 57.699 138.403C57.3335 138.283 56.8753 138.223 56.3243 138.223C55.2224 138.223 54.475 138.446 54.0877 138.899C53.7003 139.352 53.5094 139.897 53.5094 140.536H50.6945V139.739C50.6945 139.188 50.7982 138.67 51.0109 138.185C51.2182 137.699 51.5564 137.274 52.0201 136.908C52.4838 136.543 53.0675 136.259 53.7767 136.046C54.4859 135.839 55.3369 135.735 56.3298 135.735ZM59.1774 144.507C59.1337 144.725 59.0246 144.894 58.8446 145.004C58.6701 145.113 58.5009 145.189 58.3482 145.233C58.0154 145.342 57.6554 145.473 57.2735 145.615C56.8862 145.756 56.5262 145.887 56.1988 145.996C55.8006 146.127 55.4242 146.264 55.0751 146.395C54.8078 146.504 54.5568 146.662 54.3113 146.858C54.1149 147.033 53.9295 147.262 53.7658 147.535C53.6022 147.813 53.5203 148.157 53.5203 148.577C53.5203 149.417 53.7167 150.039 54.1149 150.448C54.5132 150.857 55.2496 151.059 56.3352 151.059C57.4372 151.059 58.19 150.841 58.5882 150.415C58.9865 149.984 59.1828 149.373 59.1828 148.577V144.507H59.1774Z" fill="#0075B4"/>
<path d="M84.937 153.279H82.1221V140.568V140.268C82.1221 140.072 82.0948 139.854 82.0402 139.625C81.9857 139.396 81.8657 139.172 81.6747 138.965C81.4893 138.757 81.211 138.577 80.8455 138.435C80.48 138.294 79.9891 138.223 79.3726 138.223C78.7562 138.223 78.2543 138.294 77.867 138.435C77.4797 138.577 77.1851 138.752 76.9723 138.948C76.7596 139.145 76.6232 139.363 76.5577 139.592C76.4923 139.821 76.4595 140.028 76.4595 140.203V140.568V153.279H73.6446V140.568V140.268C73.6446 140.072 73.6174 139.854 73.5628 139.625C73.5083 139.396 73.3882 139.172 73.1973 138.965C73.0118 138.757 72.7336 138.577 72.3681 138.435C72.0026 138.294 71.5116 138.223 70.8952 138.223C70.2788 138.223 69.7769 138.294 69.3896 138.435C69.0022 138.577 68.7077 138.752 68.4949 138.948C68.2822 139.145 68.1458 139.363 68.0803 139.592C68.0148 139.821 67.9821 140.028 67.9821 140.203V140.568V153.279H65.2V140.334V139.739C65.2 139.472 65.2436 139.123 65.3309 138.681C65.4182 138.239 65.6527 137.797 66.0237 137.355C66.4001 136.913 66.962 136.532 67.7148 136.215C68.4676 135.893 69.5041 135.735 70.8243 135.735C71.8826 135.735 72.75 135.839 73.421 136.052C74.092 136.264 74.6429 136.521 75.0575 136.832C75.4776 136.521 76.0231 136.264 76.6941 136.052C77.3651 135.844 78.2325 135.735 79.2908 135.735C80.6164 135.735 81.6529 135.893 82.4003 136.215C83.1531 136.537 83.715 136.913 84.0859 137.355C84.4623 137.797 84.6915 138.245 84.7842 138.697C84.8715 139.15 84.9151 139.499 84.9151 139.739V140.072V153.279H84.937Z" fill="#0075B4"/>
<path d="M93.8399 135.735C95.1655 135.735 96.202 135.893 96.9548 136.215C97.7076 136.537 98.2695 136.913 98.6459 137.355C99.0223 137.797 99.2514 138.245 99.3387 138.697C99.426 139.15 99.4697 139.499 99.4697 139.739V140.568V140.601V141.332C99.4697 141.709 99.3987 142.129 99.2515 142.592C99.1096 143.056 98.7714 143.552 98.2422 144.082C98.0022 144.349 97.724 144.545 97.413 144.676C97.1021 144.807 96.8293 144.905 96.5838 144.976C96.2947 145.064 96.0001 145.107 95.6892 145.107H93.1743C92.6015 145.107 92.0942 145.32 91.6523 145.735C91.2104 146.155 90.9922 146.673 90.9922 147.289V148.779C90.9922 149.308 91.0904 149.728 91.2923 150.039C91.3796 150.192 91.4778 150.328 91.5923 150.437C91.7014 150.546 91.8705 150.65 92.0887 150.737C92.2633 150.824 92.4924 150.901 92.7652 150.966C93.0434 151.032 93.398 151.064 93.8399 151.064C94.4127 151.064 94.8654 151.004 95.1982 150.884C95.531 150.764 95.7601 150.661 95.891 150.568C96.1802 150.35 96.3765 150.082 96.4857 149.771C96.5948 149.461 96.6493 149.133 96.6493 148.779H99.4642V149.575C99.4642 150.17 99.3387 150.721 99.0823 151.228C98.8314 151.735 98.4386 152.177 97.9095 152.554C97.5331 152.821 97.0148 153.05 96.3547 153.252C95.6946 153.448 94.8545 153.552 93.8399 153.552C93.0871 153.552 92.4379 153.492 91.8869 153.372C91.3359 153.252 90.8559 153.094 90.4467 152.908C90.0376 152.723 89.6994 152.505 89.4375 152.264C89.1702 152.024 88.952 151.779 88.7774 151.539C88.3792 150.966 88.1937 150.301 88.2155 149.553V148.79V147.3V140.612V140.579V139.739C88.2155 139.472 88.2592 139.123 88.3465 138.681C88.4337 138.239 88.6683 137.797 89.0393 137.355C89.4157 136.913 89.9776 136.532 90.7304 136.215C91.4778 135.893 92.5143 135.735 93.8399 135.735ZM96.6548 140.568V140.268C96.6548 140.072 96.6275 139.854 96.5729 139.625C96.5184 139.396 96.3929 139.172 96.1911 138.965C95.9947 138.757 95.711 138.577 95.3455 138.435C94.98 138.294 94.5 138.223 93.9053 138.223C93.2889 138.223 92.787 138.294 92.3997 138.435C92.0124 138.577 91.7178 138.752 91.505 138.948C91.2977 139.145 91.1559 139.363 91.0904 139.592C91.025 139.821 90.9922 140.028 90.9922 140.203V140.568V140.601V140.869V143.651C91.0359 143.454 91.1341 143.291 91.2923 143.171C91.445 143.051 91.625 142.958 91.8214 142.887C92.0178 142.821 92.2197 142.778 92.4161 142.756C92.6124 142.734 92.7706 142.723 92.8797 142.723H94.7673C95.2746 142.723 95.7165 142.543 96.0929 142.178C96.4693 141.812 96.6548 141.376 96.6548 140.869V140.601V140.568V140.568Z" fill="#0075B4"/>
<path d="M109.436 150.797V153.279C108.111 153.279 107.074 153.121 106.327 152.799C105.574 152.477 105.007 152.101 104.619 151.659C104.232 151.217 103.997 150.77 103.91 150.317C103.823 149.864 103.779 149.515 103.779 149.275V148.68V138.086H101.663V135.735H103.779V131.333H106.594V135.735H109.442V138.086H106.594V148.413V148.713C106.594 148.91 106.621 149.128 106.676 149.357C106.731 149.586 106.856 149.815 107.058 150.033C107.254 150.252 107.538 150.437 107.903 150.579C108.269 150.721 108.749 150.792 109.344 150.792H109.436V150.797Z" fill="#0075B4"/>
<path d="M117.379 135.768C117.756 135.768 118.077 135.762 118.356 135.752C118.634 135.741 118.923 135.757 119.234 135.801L118.607 138.217C118.339 138.217 118.121 138.223 117.946 138.234C117.772 138.245 117.559 138.25 117.319 138.25C116.725 138.25 116.244 138.326 115.879 138.479C115.513 138.632 115.235 138.817 115.033 139.025C114.837 139.237 114.706 139.456 114.652 139.685C114.597 139.914 114.57 140.132 114.57 140.328V140.629V153.274H111.755V140.525V139.761C111.755 139.521 111.798 139.172 111.886 138.719C111.973 138.266 112.208 137.819 112.579 137.377C112.955 136.935 113.517 136.553 114.264 136.237C115.017 135.926 116.054 135.768 117.379 135.768Z" fill="#0075B4"/>
<path d="M124.4 129.309V132.653H121.618V129.309H124.4ZM121.618 135.997H124.4V153.279H121.618V135.997Z" fill="#0075B4"/>
<path d="M136.118 140.536V140.203C136.118 139.985 136.074 139.756 135.987 139.527C135.9 139.297 135.741 139.079 135.523 138.883C135.305 138.686 135.01 138.523 134.645 138.403C134.279 138.283 133.821 138.223 133.27 138.223C132.168 138.223 131.421 138.446 131.034 138.899C130.646 139.352 130.455 139.898 130.455 140.536V148.582C130.455 149.422 130.652 150.044 131.05 150.453C131.448 150.863 132.185 151.064 133.27 151.064C134.372 151.064 135.125 150.846 135.523 150.421C135.921 149.99 136.118 149.379 136.118 148.582H138.9V149.542C138.9 149.941 138.829 150.377 138.682 150.852C138.54 151.326 138.256 151.763 137.836 152.161C137.416 152.559 136.843 152.892 136.112 153.154C135.381 153.421 134.432 153.552 133.265 153.552C132.092 153.552 131.148 153.421 130.417 153.154C129.686 152.892 129.113 152.559 128.693 152.161C128.273 151.763 127.99 151.326 127.848 150.852C127.706 150.377 127.635 149.941 127.635 149.542V147.988V140.536V139.739C127.635 139.188 127.739 138.67 127.951 138.185C128.159 137.699 128.497 137.274 128.961 136.908C129.424 136.543 130.008 136.259 130.717 136.046C131.421 135.839 132.272 135.73 133.265 135.73C135.229 135.73 136.658 136.112 137.553 136.87C138.447 137.634 138.895 138.588 138.895 139.734V140.53H136.118V140.536Z" fill="#0075B4"/>
<path d="M150.007 138.894C149.62 138.441 148.878 138.217 147.77 138.217C147.219 138.217 146.761 138.277 146.395 138.397C146.03 138.517 145.741 138.681 145.517 138.877C145.299 139.074 145.141 139.292 145.053 139.521C144.966 139.75 144.923 139.979 144.923 140.198V140.83C144.923 141.098 144.972 141.327 145.07 141.523C145.168 141.72 145.288 141.9 145.419 142.052C145.55 142.205 145.686 142.325 145.834 142.401C145.975 142.478 146.095 142.538 146.183 142.581C146.27 142.603 146.494 142.68 146.843 142.811C147.197 142.942 147.612 143.094 148.087 143.258C148.561 143.422 149.052 143.596 149.56 143.771C150.067 143.945 150.52 144.103 150.918 144.234C151.714 144.524 152.325 145.009 152.756 145.691C153.187 146.373 153.4 147.137 153.4 147.977V149.531C153.4 149.93 153.329 150.366 153.182 150.841C153.04 151.315 152.756 151.752 152.336 152.15C151.916 152.548 151.343 152.881 150.612 153.143C149.881 153.41 148.932 153.541 147.765 153.541C146.592 153.541 145.648 153.41 144.917 153.143C144.186 152.881 143.613 152.548 143.193 152.15C142.773 151.752 142.49 151.315 142.348 150.841C142.206 150.366 142.135 149.93 142.135 149.531V148.571H144.917C144.917 149.368 145.113 149.979 145.512 150.41C145.91 150.841 146.657 151.053 147.765 151.053C148.845 151.053 149.587 150.852 149.985 150.442C150.383 150.033 150.58 149.411 150.58 148.571C150.58 148.151 150.503 147.802 150.351 147.529C150.198 147.251 150.018 147.027 149.821 146.853C149.576 146.657 149.314 146.498 149.025 146.389C148.365 146.149 147.743 145.926 147.17 145.729C146.663 145.555 146.172 145.38 145.697 145.216C145.223 145.053 144.873 144.933 144.655 144.867C144.437 144.78 144.181 144.649 143.892 144.469C143.602 144.294 143.33 144.06 143.062 143.776C142.795 143.487 142.577 143.143 142.402 142.734C142.228 142.325 142.135 141.856 142.135 141.327V139.739C142.135 138.594 142.588 137.639 143.493 136.875C144.399 136.112 145.823 135.735 147.765 135.735C148.758 135.735 149.609 135.839 150.312 136.052C151.016 136.264 151.605 136.548 152.069 136.913C152.533 137.279 152.871 137.704 153.078 138.19C153.285 138.676 153.395 139.194 153.395 139.745V140.541H150.58C150.585 139.892 150.394 139.347 150.007 138.894Z" fill="#0075B4"/>
</svg>
